<?xml version="1.0" encoding="UTF-8" standalone="no"?>
<!-- Generator: Adobe Illustrator 22.0.1, SVG Export Plug-In . SVG Version: 6.00 Build 0)  -->

<svg
   xmlns:dc="http://purl.org/dc/elements/1.1/"
   xmlns:cc="http://creativecommons.org/ns#"
   xmlns:rdf="http://www.w3.org/1999/02/22-rdf-syntax-ns#"
   xmlns:svg="http://www.w3.org/2000/svg"
   xmlns="http://www.w3.org/2000/svg"
   xmlns:sodipodi="http://sodipodi.sourceforge.net/DTD/sodipodi-0.dtd"
   xmlns:inkscape="http://www.inkscape.org/namespaces/inkscape"
   version="1.1"
   id="Layer_1"
   x="0px"
   y="0px"
   viewBox="0 0 1615.9487 2088.8772"
   xml:space="preserve"
   sodipodi:docname="logo-monochrome-black.svg"
   width="1615.9487"
   height="2088.8772"
   inkscape:version="0.92.3 (2405546, 2018-03-11)"><metadata
   id="metadata47"><rdf:RDF><cc:Work
       rdf:about=""><dc:format>image/svg+xml</dc:format><dc:type
         rdf:resource="http://purl.org/dc/dcmitype/StillImage" /><dc:title></dc:title></cc:Work></rdf:RDF></metadata><defs
   id="defs45">
	
	
	

		
		
	
			
			
			
			
			
			
			
			
			
		</defs><sodipodi:namedview
   pagecolor="#ffffff"
   bordercolor="#666666"
   borderopacity="1"
   objecttolerance="10"
   gridtolerance="10"
   guidetolerance="10"
   inkscape:pageopacity="0"
   inkscape:pageshadow="2"
   inkscape:window-width="3098"
   inkscape:window-height="1689"
   id="namedview43"
   showgrid="false"
   inkscape:zoom="0.54"
   inkscape:cx="152.7461"
   inkscape:cy="917.42654"
   inkscape:window-x="102"
   inkscape:window-y="55"
   inkscape:window-maximized="1"
   inkscape:current-layer="Layer_1"
   inkscape:pagecheckerboard="true"
   fit-margin-top="0"
   fit-margin-left="0"
   fit-margin-right="0"
   fit-margin-bottom="0" />
<style
   type="text/css"
   id="style2">
	.st0{fill:#FFFFFF;}
	.st1{fill:none;}
</style>
<g
   id="g960"><g
     style="fill:#000000;fill-opacity:1"
     transform="matrix(9.9850732,0,0,9.9850732,-1168.1494,-484.27605)"
     id="g8">
		<path
   class="st0"
   d="m 274,202.9 c 0.5,-0.8 1.1,-1.5 1.5,-2.3 -1.2,-1.1 -2.4,-2.5 -3.5,-4.2 -0.5,-0.8 -0.9,-1.6 -1.3,-2.4 1.8,2.3 3.9,3.8 6,4.4 0.7,-1.3 1.2,-2.6 1.6,-3.9 0,-0.1 0.1,-0.3 0.1,-0.4 -1.3,-0.8 -2.7,-1.9 -3.9,-3.5 -0.5,-0.6 -0.9,-1.3 -1.3,-2 1.8,1.8 3.8,2.7 5.6,2.9 0.1,-1.6 -0.1,-3.1 -0.4,-4.6 -1,-0.5 -1.9,-1.2 -2.9,-2.1 -0.5,-0.5 -1,-1.1 -1.5,-1.7 1.3,0.9 2.5,1.4 3.8,1.5 -1.1,-3.5 -2.9,-6.5 -4,-7.9 l -9,11 c 2.8,7.1 5.7,13.3 9.2,15.2 z"
   id="path4"
   inkscape:connector-curvature="0"
   style="fill:#000000;fill-opacity:1" />
		<path
   style="fill:#000000;fill-opacity:1"
   d="m 225.6,244.9 -0.1,-0.2 -0.1,0.1 c 0.1,0 0.1,0 0.2,0.1 z"
   id="path6"
   inkscape:connector-curvature="0" />
	</g><path
     class="st0"
     d="m 920.72791,868.70137 c -23.96417,-6.98955 -47.92835,2.99552 -53.91939,21.96716 -5.99105,19.97015 8.98656,40.9388 32.95074,47.92835 23.96418,6.98955 47.92835,-2.99552 53.91939,-21.96716 5.99105,-18.97164 -8.98656,-40.9388 -32.95074,-47.92835 z"
     id="path10"
     inkscape:connector-curvature="0"
     style="fill:#000000;stroke-width:9.98507309;fill-opacity:1" /><path
     class="st1"
     d="m 147.88325,636.04916 c 3.99403,13.97911 20.96865,68.89701 25.96119,82.87611 0,0 -14.97761,-103.84476 -6.98955,-148.77759 7.98806,-41.93731 22.96567,-80.87909 42.93581,-111.83282 4.99254,-7.98806 10.98358,-15.97612 16.97463,-22.96567 l 4.99253,3.99403 176.7358,122.8164 -133.79998,-143.78505 -8.98657,-10.98358 c -27.9582,-33.94925 -67.8985,-73.88954 -67.8985,-73.88954 -57.91342,22.96566 -90.86416,95.8567 -86.87013,155.76714 1.99701,26.95969 10.98358,62.90596 22.96567,99.85073 3.99402,15.97612 8.98656,30.95373 13.9791,46.92984 z"
     id="path12"
     inkscape:connector-curvature="0"
     style="fill:none;stroke-width:9.98507309" /><path
     class="st1"
     d="m 328.61307,1101.3536 c -0.9985,18.9716 0,37.9433 1.99702,55.9164 21.96716,206.691 199.70146,292.5626 431.35516,234.6492 12.98059,54.9179 41.93731,105.8418 87.86864,145.7821 0.99851,0.9985 0.99851,0.9985 1.99702,1.997 -41.93731,-69.8955 -49.92537,-167.7492 1.99701,-289.5671 -257.61489,104.8432 -473.29247,45.9313 -525.21485,-148.7776 z"
     id="path14"
     inkscape:connector-curvature="0"
     style="fill:none;stroke-width:9.98507309" /><path
     class="st1"
     d="m 981.63686,1035.4521 c -59.91044,42.9358 -129.80595,62.906 -197.70445,51.9224 -91.86267,-15.9761 -158.76266,-86.8702 -186.72087,-182.72687 5.99105,113.82987 54.9179,204.69397 133.79998,233.65067 -7.98806,0.9986 -15.97611,1.9971 -23.96417,1.9971 -138.79252,7.988 -257.61489,-44.9329 -325.51339,-133.8 44.93283,126.8104 161.75819,209.6865 305.54324,200.7 117.82386,-6.9896 226.66116,-74.8881 296.55667,-172.7418 0,0 0,0 0,0 0,0 0,0 0,0 0,0 0,0 0,0 -0.9985,0 -1.99701,0.9985 -1.99701,0.9985 z"
     id="path16"
     inkscape:connector-curvature="0"
     style="fill:none;stroke-width:9.98507309" /><path
     class="st1"
     d="m 204.79817,1089.3715 c 4.99253,27.9582 16.97462,68.897 26.95969,120.8194 C 255.72204,925.61629 429.46231,685.97453 429.46231,685.97453 338.59815,773.84317 285.67726,834.75212 222.7713,961.56255 L 213.78473,850.72824 C 71.996691,1054.4237 69.001169,1361.964 218.77727,1576.6431 c 7.98806,11.982 17.97313,23.9641 27.9582,36.9447 -92.86118,-166.7507 -112.83132,-380.4313 -41.9373,-524.2163 z"
     id="path18"
     inkscape:connector-curvature="0"
     style="fill:none;stroke-width:9.98507309" /><path
     class="st1"
     d="m 720.02794,1543.6923 c -11.98209,-14.9776 -22.96567,-31.9522 -32.95074,-49.9253 -16.97462,2.9955 -33.94925,4.9925 -50.92387,6.9895 -180.72983,16.9746 -340.491,-67.8985 -377.43577,-200.7 -0.99851,15.9761 0,31.9523 0.99851,46.9299 17.97313,167.7492 197.70445,268.5984 408.38949,242.6373 59.91044,40.9388 131.80297,70.894 212.68206,84.8731 0.99851,0 2.99552,0 3.99403,0.9985 -62.90596,-28.9567 -119.82088,-71.8925 -164.75371,-131.803 z"
     id="path20"
     inkscape:connector-curvature="0"
     style="fill:none;stroke-width:9.98507309" /><path
     class="st1"
     d="m 678.09063,715.92975 c -38.94178,-14.97761 -66.89999,-31.95224 -84.87312,-50.92387 -72.89103,25.96119 -126.81043,77.88357 -141.78804,146.78057 -13.9791,63.90447 7.98806,130.80446 54.91791,186.72087 -17.97314,-39.94029 -23.96418,-81.8776 -14.97761,-122.8164 18.97163,-83.87462 91.86267,-141.78804 186.72086,-159.76117 z"
     id="path22"
     inkscape:connector-curvature="0"
     style="fill:none;stroke-width:9.98507309" /><path
     class="st1"
     d="m 1033.5592,839.74466 c -9.985,-23.96418 -24.9626,-45.93134 -42.93577,-66.89999 -12.9806,-0.99851 -24.96269,-0.99851 -36.94478,-1.99702 30.95373,19.97015 57.91345,42.93582 79.88055,68.89701 z"
     id="path24"
     inkscape:connector-curvature="0"
     style="fill:none;stroke-width:9.98507309" /><path
     class="st1"
     d="m 1015.5861,880.68346 c -4.9925,-5.99105 -10.9836,-10.98358 -16.97462,-15.97612 -29.95522,-27.95821 -66.89999,-48.92686 -108.83729,-60.90895 -55.91641,-15.97611 -112.83133,-10.98358 -162.7567,8.98657 37.94328,0 76.88507,4.99254 116.82536,12.98059 -76.88506,4.99254 -157.76416,24.96269 -157.76416,24.96269 0,0 43.93433,105.84177 120.81939,126.81043 8.98656,1.99701 17.97313,3.99403 26.9597,4.99253 -49.92537,-37.94328 -77.88357,-104.84327 -77.88357,-104.84327 0,0 8.98656,-2.99552 22.96566,-5.99104 13.97911,30.95373 41.93731,71.89253 77.88357,90.86417 44.93283,23.96417 103.84477,8.98656 125.81193,12.98059 17.97313,2.99552 34.94773,14.97761 45.93133,28.95675 19.9702,23.9641 26.9597,57.9134 20.9687,94.8582 2.9955,-3.9941 5.991,-8.9866 8.9865,-12.9806 27.9582,-47.9284 18.9717,-101.84778 -2.9955,-146.78061 -10.9836,-22.96567 -25.9612,-42.93582 -39.9403,-58.91193 z"
     id="path26"
     inkscape:connector-curvature="0"
     style="fill:none;stroke-width:9.98507309" /><path
     class="st0"
     d="m 1511.8442,1232.158 61.9075,-42.9358 -141.788,-144.7835 -50.9239,-83.87466 c -4.9925,13.9791 -7.9881,29.95522 -6.9896,46.92986 -1.997,-3.994 -3.994,-7.98807 -5.991,-10.98359 -17.9731,-40.9388 -5.9911,-83.87462 14.9776,-117.82387 5.991,-8.98656 12.9806,-17.97313 18.9716,-25.96119 l -33.9492,-66.89999 c -26.9597,16.97463 -49.9254,38.94179 -67.8985,64.90298 7.9881,-35.94627 21.9672,-66.89999 40.9388,-92.86118 l -22.9657,-12.9806 c 103.8448,-29.95522 158.7627,-76.88506 160.7597,-121.81789 1.997,-66.89999 -142.7865,-112.83133 -229.6567,-133.79998 l -9.9851,-1.99702 9.9851,-186.72087 C 1256.2264,172.74177 1130.4145,69.895513 934.70702,40.9388 932.71,16.974625 906.74881,2.9955222 861.81598,1.9999982e-7 c -2.99552,0 -6.98955,0 -9.98507,0 C 798.91002,1.9999982e-7 786.92793,20.968654 784.93092,34.947756 760.96674,35.946264 737.00257,39.940293 737.00257,39.940293 552.27871,66.899991 428.4638,166.75072 421.47425,294.55966 c 0,0.99851 -5.99104,112.83133 -9.98507,183.72535 C 351.57874,402.39845 241.74294,264.60444 217.77876,254.61937 197.80861,246.63131 175.84145,246.63131 155.87131,250.62534 64.008633,269.59698 10.089238,377.43577 17.078789,466.30292 25.066847,575.14022 123.91907,798.80586 123.91907,798.80586 -57.80926,1042.4416 -29.851055,1366.9565 143.88922,1606.5983 c 61.90745,84.8731 167.74923,167.7492 254.61937,227.6596 -28.95672,-43.9343 -47.92836,-93.8596 -53.9194,-149.7761 43.93432,67.8985 111.83282,122.8164 203.69549,156.7657 14.97761,-70.894 62.90596,-131.803 156.76565,-140.7895 57.91343,-4.9926 160.75968,29.9552 261.60892,193.7104 l 8.98657,-102.8463 105.84178,168.7478 78.8821,-125.812 35.9462,188.7179 c 56.915,29.9553 124.8134,65.9015 124.8134,65.9015 l 148.7776,-436.3477 c 0,0 0,0 0.9985,-0.9985 -26.9597,-5.991 -55.9164,-8.9866 -87.8686,-9.9851 -97.8537,-1.997 -205.6925,20.9687 -314.5298,62.906 26.9597,-18.9716 52.9209,-37.9433 79.8806,-54.9179 -191.71342,-10.9836 -378.43429,-210.6851 -134.7985,-494.2611 1.997,-1.997 3.994,-4.9926 5.991,-6.9896 -27.95817,42.9358 -45.9313,83.8746 -54.91786,121.8179 70.89406,35.9463 157.76416,34.9478 232.65216,-6.9895 -8.9865,8.9865 -18.9716,17.9731 -29.9552,25.9612 -62.9059,48.9268 -140.7895,63.9044 -210.68502,48.9268 0,8.9866 0.9985,17.9731 1.99701,26.9597 85.87161,44.9328 195.70741,34.9478 276.58651,-26.9597 -7.988,9.9851 -15.9761,20.9687 -24.9627,29.9552 -59.9104,61.9075 -141.788,88.8672 -220.67008,79.8806 7.98806,11.9821 16.97458,23.9642 26.95968,33.9493 100.8493,29.9552 215.6776,1.997 293.5612,-74.8881 -6.9896,11.9821 -13.9791,23.9642 -22.9657,35.9463 -37.9433,50.9239 -90.8642,85.8716 -147.7791,104.8432 22.9657,4.9926 45.9314,5.9911 68.897,3.9941 92.8612,-7.9881 165.7522,-68.897 215.6776,-163.7552 l -115.8268,-134.7985 105.8417,-72.891 z M 862.81449,19.970147 c 25.96119,0.998507 45.93134,9.985073 45.93134,19.970146 -0.99851,9.985073 -21.96717,16.974624 -47.92836,14.97761 -25.96119,-1.997015 -45.93133,-9.985073 -45.93133,-19.970147 0,-9.985073 21.96716,-16.974624 47.92835,-14.977609 z m -48.92686,45.931336 c 8.98657,5.991044 22.96567,9.985074 43.93432,10.983581 28.95671,1.997014 44.93283,-3.994029 52.92089,-11.982088 187.71936,21.967161 316.52686,113.829834 310.53576,232.652204 0,0 -6.9895,134.79849 -13.9791,258.6134 -111.8328,35.94626 -254.61935,52.92089 -409.38799,44.93283 -56.91491,-2.99553 -106.84028,-7.98806 -150.7746,-14.97761 3.99403,-65.90149 10.98358,-196.70595 16.97462,-291.56414 0,-0.99851 0.99851,-111.83282 64.90298,-180.72983 23.96417,-23.964171 51.92238,-39.940288 84.87312,-47.928347 z M 451.42947,295.55817 C 457.42052,175.73729 583.23244,89.865659 742.99361,66.899991 c -10.98358,7.988058 -20.96865,15.976117 -30.95373,25.96119 -72.89103,76.885059 -73.88954,196.705939 -73.88954,200.699969 0,0 -4.99253,82.87611 -9.98507,166.75072 -2.99552,56.91492 -5.99105,95.85671 -6.98955,120.81939 -79.88059,-14.97761 -139.79103,-36.94477 -182.72684,-63.90447 6.98955,-108.8373 12.98059,-221.66862 12.98059,-221.66862 z m 54.91791,701.95064 C 459.41753,941.5924 437.45037,875.69092 451.42947,810.78794 c 14.97761,-68.897 68.89701,-120.81938 141.78804,-146.78057 17.97313,18.97164 45.93134,35.94626 84.87312,50.92387 -94.85819,17.97313 -168.74773,75.88656 -186.72086,158.76267 -8.98657,41.9373 -2.99553,83.87461 14.97761,123.8149 z M 109.93997,490.26709 c -3.99403,-60.90894 28.95671,-132.80147 86.87014,-155.76714 0,0 39.94029,39.9403 67.89849,73.88954 l 8.98657,10.98358 133.79998,143.78506 -176.73579,-122.8164 -4.99254,-3.99403 c -5.99105,6.98955 -10.98358,13.9791 -16.97463,22.96567 -19.97014,30.95372 -34.94775,69.89551 -42.93581,111.83282 -7.98806,44.93283 6.98955,148.77759 6.98955,148.77759 -3.99403,-13.9791 -21.96716,-69.89551 -25.96119,-82.87611 -4.99254,-14.97761 -9.98507,-30.95373 -13.9791,-45.93134 -10.98358,-37.94327 -20.96866,-73.88954 -22.96567,-100.84924 z M 218.77727,1577.6416 C 69.001169,1362.9625 71.996691,1055.4222 213.78473,851.72674 l 8.98657,110.83432 c 62.90596,-126.81043 115.82685,-187.71938 206.69101,-275.58802 0,0 -174.73878,239.64175 -197.70445,524.21636 -9.98507,-51.9224 -21.96716,-92.8612 -26.95969,-120.8194 -70.89402,143.785 -49.92537,356.4671 42.93581,525.2148 -10.98358,-12.9806 -19.97015,-25.9611 -28.95671,-37.9432 z m 633.05364,-37.9433 c -0.99851,-0.9985 -0.99851,-0.9985 -1.99702,-1.997 -45.93133,-40.9388 -74.88805,-91.8627 -87.86864,-145.7821 -231.6537,57.9134 -409.388,-27.9582 -431.35516,-234.6492 -1.99702,-17.9731 -1.99702,-36.9448 -1.99702,-55.9164 50.92388,194.7089 266.60146,253.6208 525.21485,148.7776 -51.92238,121.8179 -43.93432,219.6716 -1.99701,289.5671 z m 28.95671,133.8 c -80.87909,-13.9791 -153.77013,-43.9344 -212.68206,-84.8732 -209.68654,26.9597 -389.41785,-73.8895 -408.38949,-242.6372 -1.99702,-14.9776 -1.99702,-30.9538 -0.99851,-46.9299 37.94328,132.8015 197.70445,217.6746 377.43577,200.7 16.97462,-1.997 33.94925,-3.994 50.92387,-6.9896 9.98507,17.9732 20.96865,33.9493 32.95074,49.9254 44.93283,59.9104 101.84775,102.8463 165.75222,130.8045 -1.99702,0.9985 -2.99552,0.9985 -4.99254,0 z m 101.84775,-639.0447 c 0,0 0,0 0,0 -69.89552,97.8537 -178.73281,165.7522 -296.55668,172.7418 -143.78505,8.9865 -260.61041,-74.8881 -305.54324,-200.7 67.8985,88.8671 186.72087,142.7865 325.51339,133.8 7.98806,0 15.97612,-0.9985 23.96418,-1.9971 -77.88358,-29.9552 -127.80894,-120.8193 -133.79999,-233.65067 27.95821,95.85667 95.85671,166.75077 186.72087,182.72687 67.8985,11.9821 136.79551,-7.9881 197.70445,-51.9224 0.99851,0 1.99702,-0.9985 1.99702,-0.9985 0,0 0,0 0,0 0,0 0,0 0,0 z m 74.88803,51.9224 c -2.9955,4.9925 -5.991,8.9865 -8.9865,12.9806 5.991,-36.9448 -0.9986,-69.8956 -20.9687,-94.8582 -10.9836,-13.97914 -28.95672,-24.96272 -45.93134,-28.95675 -20.96865,-3.99403 -80.87909,10.98358 -125.81192,-12.98059 -35.94627,-18.97164 -63.90447,-59.91044 -77.88357,-90.86417 -13.97911,3.99403 -22.96567,5.99104 -22.96567,5.99104 0,0 27.9582,66.89999 77.88357,104.84327 -8.98657,-0.9985 -18.97164,-2.99552 -26.9597,-4.99253 -76.88506,-21.96716 -120.81938,-126.81043 -120.81938,-126.81043 0,0 80.87909,-19.97015 157.76415,-24.96269 -39.94029,-8.98656 -79.88058,-12.98059 -116.82535,-12.98059 49.92536,-19.97015 105.84177,-23.96418 162.75669,-8.98657 41.93731,11.98209 78.88208,32.95074 108.8373,60.90895 5.99102,4.99254 11.98212,9.98507 16.97462,15.97612 14.9776,15.97611 28.9567,35.94626 39.9403,58.91193 21.9672,43.93432 30.9537,97.85371 2.9955,146.78061 z M 952.68015,770.84765 c 11.98209,0.99851 24.96268,1.99702 36.94477,1.99702 17.97318,20.96865 32.95078,43.93432 42.93578,66.89999 -20.9686,-25.96119 -47.92832,-48.92686 -79.88055,-68.89701 z m 72.89105,-23.96417 c -237.64476,-7.98806 -429.35817,-67.8985 -427.36115,-133.79999 0,-3.99402 0.99851,-6.98955 1.99701,-10.98358 59.91044,13.97911 134.79849,20.96866 226.66117,25.96119 248.62827,13.97911 414.38057,-55.91641 414.38057,-55.91641 l 1.997,-55.91641 c 0,0 209.6865,50.92388 208.688,105.84178 -1.997,65.90148 -187.7194,131.80297 -426.3626,124.81342 z"
     id="path28"
     inkscape:connector-curvature="0"
     style="fill:#020202;stroke-width:9.98507309;fill-opacity:1" /><g
     style="fill:#000000;fill-opacity:1"
     transform="matrix(9.9850732,0,0,9.9850732,-1168.1494,-484.27605)"
     id="g36">
			<path
   style="fill:#000000;fill-opacity:1"
   inkscape:connector-curvature="0"
   id="path32"
   d="m 209.1,96 -2.9,0.2 1.2,-17 2.8,-0.2 5.6,10.4 0.7,-10.8 2.9,-0.2 -1.2,17 -2.8,0.2 -5.6,-10.7 z"
   class="st0" />
			<path
   style="fill:#000000;fill-opacity:1"
   inkscape:connector-curvature="0"
   id="path34"
   d="m 228,88.7 -0.4,6.1 -3,0.2 0.4,-6.1 -3.6,-10.6 3.3,-0.2 2.1,7.1 3.1,-7.5 3.3,-0.2 z"
   class="st0" />
		</g></g>
</svg>