<?xml version="1.0" encoding="iso-8859-1"?>
<!-- Generator: Adobe Illustrator 18.1.1, SVG Export Plug-In . SVG Version: 6.00 Build 0)  -->
<svg version="1.1" id="Capa_1" xmlns="http://www.w3.org/2000/svg" xmlns:xlink="http://www.w3.org/1999/xlink" x="0px" y="0px"
	 viewBox="0 0 19.675 19.675" style="enable-background:new 0 0 19.675 19.675;" xml:space="preserve">
<g>
	<path style="fill:#FFFFFF;" d="M11.347,19.025l-0.021-0.086l-0.057-1.123c0,0,0.036-0.217,0.153-0.376
		c0.116-0.162-0.044-3.167-0.044-3.167s0.113-0.311,0.2-0.369c0.088-0.061-0.171-2-0.128-2.029c0.044-0.027,0.328-0.185,0.49-0.271
		c0.16-0.088,0.465-0.981,0.465-0.981s0.1-0.123,0.244-0.225c0.147-0.103,0.279-0.409,0.336-0.554
		c0.06-0.148-0.057-0.308-0.057-0.308l0.219-0.498l-0.085-0.131l-0.879-0.409l-0.365,0.54c0,0-0.336-0.191-0.512-0.395
		c-0.177-0.205-0.132-0.702-0.323-1.024c-0.085-0.144-0.266-0.244-0.441-0.311c-0.062-0.179-0.159-0.452-0.187-0.566
		c-0.044-0.175-0.03-0.513,0.015-0.615c0.027-0.067,0-0.247-0.021-0.364c0.02-0.046,0.041-0.041,0.049-0.093
		c0.282-0.031,0.839-0.17,0.817-0.176c-0.024-0.006-0.556-0.07-0.831-0.094c-0.009-0.049,0-0.036-0.021-0.078l0.746-0.467
		l-0.89,0.238c-0.037-0.037-0.024-0.067-0.071-0.098c0.074-0.101,0.407-0.772,0.373-0.744c-0.127,0.103-0.581,0.577-0.645,0.63
		C9.817,4.862,9.757,4.85,9.693,4.842L9.535,3.825l-0.12,1.016C9.303,4.854,9.318,4.847,9.224,4.894l0,0c0,0-0.673-0.636-0.71-0.665
		c-0.036-0.03,0.407,0.772,0.407,0.772l-0.066,0.11L8.306,4.967c-0.009,0.04-0.019,0.082-0.028,0.128l0.468,0.207L8.731,5.389
		c0,0-0.23-0.013-0.394,0.002C8.355,5.46,8.376,5.521,8.402,5.58c0.126,0.016,0.323,0.052,0.323,0.052s0.011,0.017,0.027,0.044
		c0.025,0.04,0.063,0.102,0.089,0.147c0.015,0.287,0.077,0.4,0.077,0.4L8.876,6.646c0,0-0.122-0.028-0.195-0.103
		C8.608,6.471,8.417,6.253,8.402,6.05C8.39,5.875,8.348,5.654,8.29,5.58C8.272,5.544,8.183,5.276,8.17,5.156
		C8.161,5.098,8.155,5.041,8.153,4.989c0-0.022-0.001-0.044-0.001-0.065L8.149,4.923C8.148,4.896,8.148,4.87,8.148,4.842
		C8.132,4.388,7.811,3.627,7.811,3.466s-0.015-0.511,0-0.775c0.013-0.264-0.205-0.498-0.205-0.498s0.028-0.073,0.103-0.16
		c0.029-0.035,0.037-0.077,0.037-0.115c0.19-0.04,0.318-0.111,0.318-0.194c0-0.025-0.014-0.051-0.039-0.073V1.475
		C8.05,1.453,8.064,1.427,8.064,1.4c0-0.102-0.197-0.185-0.465-0.214c-0.004-0.056,0-0.144,0.04-0.172
		C7.698,0.975,7.81,0.892,7.801,0.742C7.79,0.591,7.796,0.502,7.83,0.448c0.033-0.053,0.116-0.13,0.116-0.13L7.634,0.454L7.924,0
		c0,0-0.546,0.17-0.728,0.331C7.065,0.448,6.982,0.588,7.079,0.882c0.04,0.123,0.087,0.234,0.156,0.301
		c-0.28,0.025-0.488,0.113-0.488,0.216c0,0.024,0.013,0.049,0.035,0.07v0.187C6.76,1.678,6.748,1.702,6.748,1.725
		c0,0.073,0.101,0.136,0.255,0.178c-0.009,0.12,0.091,0.231,0.091,0.231c0,0.001,0,0.001,0,0.001C7.091,2.138,7.02,2.241,7.005,2.5
		C6.991,2.764,7.151,2.956,7.151,2.956s0.015,0.087,0.015,0.248s0.146,0.454,0.146,0.454s0.043,0.247,0.015,0.7
		c-0.03,0.454,0.204,1.259,0.204,1.259s-0.19,0.336-0.35,0.716C7.02,6.713,7.503,7.24,7.503,7.24S7.81,8.105,7.837,8.454
		c0.03,0.352,0.145,3.083,0.072,3.668c-0.074,0.584-0.146,2.449-0.131,2.683c0.013,0.233,0.177,1.217,0.104,1.991
		c-0.073,0.775-0.06,2.054-0.06,2.054l-0.005,0.176H6.42v0.649h6.834v-0.649L11.347,19.025L11.347,19.025z M12.224,8.664
		l0.738,0.351l-0.154,0.351c0,0-0.178-0.019-0.275,0.059c-0.096,0.077-0.253,0.349-0.253,0.427c0,0.079,0.039,0.254,0.039,0.254
		L11.754,11.1l-0.117-0.097l-0.096-1.362L12.224,8.664z M9.677,6.036C9.672,6.074,9.653,6.093,9.609,6.093
		c-0.044,0-0.092,0.016-0.092,0.016l0.061,0.092v0.052c0,0-0.013,0.007-0.057,0.007c-0.045,0-0.059,0.034-0.068,0.059
		C9.442,6.342,9.511,6.324,9.551,6.324c0.038,0,0.054,0.054,0.054,0.054s0,0.106,0,0.151c0,0.043-0.031,0.049-0.083,0.043
		C9.469,6.568,9.307,6.557,9.252,6.46C9.199,6.361,9.19,6.122,9.214,6.08C9.24,6.037,9.429,5.953,9.463,5.944
		c0.033-0.01,0.044-0.107,0.033-0.157c-0.01-0.049-0.17-0.083-0.17-0.083C9.244,5.625,9.609,5.46,9.658,5.471
		C9.706,5.479,9.92,5.68,9.92,5.68S9.716,5.719,9.686,5.753C9.658,5.787,9.682,5.997,9.677,6.036z M9.868,6.26
		C9.823,6.275,9.712,5.986,9.779,5.986c0,0,0.181,0.005,0.185,0.05C9.969,6.08,9.913,6.245,9.868,6.26z M9.775,5.388
		c-0.04-0.006-0.187-0.059-0.268-0.012C9.424,5.427,9.181,5.606,9.094,5.67C9.004,5.734,8.98,5.499,8.98,5.499
		c0.098-0.165,0.356-0.296,0.462-0.306c0.109-0.011,0.264,0.01,0.318,0.039c0.053,0.028,0.18-0.006,0.277,0.074
		c0.098,0.075,0.153,0.252,0.138,0.297C10.16,5.646,9.814,5.392,9.775,5.388z"/>
</g>
<g>
</g>
<g>
</g>
<g>
</g>
<g>
</g>
<g>
</g>
<g>
</g>
<g>
</g>
<g>
</g>
<g>
</g>
<g>
</g>
<g>
</g>
<g>
</g>
<g>
</g>
<g>
</g>
<g>
</g>
</svg>
