<?xml version="1.0" encoding="UTF-8" standalone="no"?>
<!-- Generator: Adobe Illustrator 22.0.1, SVG Export Plug-In . SVG Version: 6.00 Build 0)  -->

<svg
   xmlns:dc="http://purl.org/dc/elements/1.1/"
   xmlns:cc="http://creativecommons.org/ns#"
   xmlns:rdf="http://www.w3.org/1999/02/22-rdf-syntax-ns#"
   xmlns:svg="http://www.w3.org/2000/svg"
   xmlns="http://www.w3.org/2000/svg"
   xmlns:sodipodi="http://sodipodi.sourceforge.net/DTD/sodipodi-0.dtd"
   xmlns:inkscape="http://www.inkscape.org/namespaces/inkscape"
   version="1.1"
   id="Layer_1"
   x="0px"
   y="0px"
   viewBox="0 0 8694.417 2802.3203"
   xml:space="preserve"
   sodipodi:docname="ftech-logo-full.svg"
   inkscape:version="0.92.3 (2405546, 2018-03-11)"
   width="8694.417"
   height="2802.3203"><metadata
     id="metadata61"><rdf:RDF><cc:Work
         rdf:about=""><dc:format>image/svg+xml</dc:format><dc:type
           rdf:resource="http://purl.org/dc/dcmitype/StillImage" /><dc:title></dc:title></cc:Work></rdf:RDF></metadata><defs
     id="defs59" /><sodipodi:namedview
     pagecolor="#ffffff"
     bordercolor="#666666"
     borderopacity="1"
     objecttolerance="10"
     gridtolerance="10"
     guidetolerance="10"
     inkscape:pageopacity="0"
     inkscape:pageshadow="2"
     inkscape:window-width="3098"
     inkscape:window-height="1689"
     id="namedview57"
     showgrid="false"
     inkscape:zoom="0.13633758"
     inkscape:cx="5379.5466"
     inkscape:cy="731.58997"
     inkscape:window-x="102"
     inkscape:window-y="55"
     inkscape:window-maximized="1"
     inkscape:current-layer="Layer_1"
     fit-margin-top="0"
     fit-margin-left="0"
     fit-margin-right="0"
     fit-margin-bottom="0"
     inkscape:pagecheckerboard="true" /><style
     type="text/css"
     id="style2">
	.st0{fill:#FFFFFF;}
	.st1{fill:#00AEEF;}
</style><rect
     style="opacity:1;vector-effect:none;fill:#000002;fill-opacity:1;stroke:none;stroke-width:309.33712769;stroke-linecap:square;stroke-linejoin:miter;stroke-miterlimit:1.41400003;stroke-dasharray:none;stroke-dashoffset:0;stroke-opacity:1"
     id="rect871"
     width="8694.417"
     height="1230.0399"
     x="0"
     y="692.3468" /><g
     id="g54"
     transform="matrix(13.401819,0,0,13.401819,2347.0055,-649.98822)"><g
       id="g38"><path
         class="st0"
         d="m 274,202.9 c 0.5,-0.8 1.1,-1.5 1.5,-2.3 -1.2,-1.1 -2.4,-2.5 -3.5,-4.2 -0.5,-0.8 -0.9,-1.6 -1.3,-2.4 1.8,2.3 3.9,3.8 6,4.4 0.7,-1.3 1.2,-2.6 1.6,-3.9 0,-0.1 0.1,-0.3 0.1,-0.4 -1.3,-0.8 -2.7,-1.9 -3.9,-3.5 -0.5,-0.6 -0.9,-1.3 -1.3,-2 1.8,1.8 3.8,2.7 5.6,2.9 0.1,-1.6 -0.1,-3.1 -0.4,-4.6 -1,-0.5 -1.9,-1.2 -2.9,-2.1 -0.5,-0.5 -1,-1.1 -1.5,-1.7 1.3,0.9 2.5,1.4 3.8,1.5 -1.1,-3.5 -2.9,-6.5 -4,-7.9 l -9,11 c 2.8,7.1 5.7,13.3 9.2,15.2 z"
         id="path4"
         inkscape:connector-curvature="0"
         style="fill:#ffffff" /><path
         class="st0"
         d="m 268.4,171.9 6.2,-4.3 -14.2,-14.5 -5.1,-8.4 c -0.5,1.4 -0.8,3 -0.7,4.7 -0.2,-0.4 -0.4,-0.8 -0.6,-1.1 -1.8,-4.1 -0.6,-8.4 1.5,-11.8 0.6,-0.9 1.3,-1.8 1.9,-2.6 l -3.4,-6.7 c -2.7,1.7 -5,3.9 -6.8,6.5 0.8,-3.6 2.2,-6.7 4.1,-9.3 l -5,-2.9 c -1.2,1.5 -2.4,0.8 -1.7,-1 l -10.5,-6.1 c 2.1,-4.6 5.7,-13.8 5.5,-20.2 -0.2,-8.9 -9.2,-9.2 -9.2,-9.2 0,0 -11.3,8.6 -17.9,13.7 l 14.1,11.4 v 0 l -17.2,-8.9 -1.5,-0.8 -37.3,-5.3 -8.7,5.7 c 0,0 0,-0.1 -0.1,-0.1 -3.1,-3.8 -19.8,-25.6 -22.9,-26.8 -2,-0.8 -4.2,-0.8 -6.2,-0.4 -9.2,1.9 -14.6,12.7 -13.9,21.6 0.8,10.9 10.7,33.3 10.7,33.3 -18.2,24.4 -15.4,56.9 2,80.9 6.2,8.5 16.8,16.8 25.5,22.8 -2.9,-4.4 -4.8,-9.4 -5.4,-15 4.4,6.8 11.2,12.3 20.4,15.7 1.5,-7.1 6.3,-13.2 15.7,-14.1 5.8,-0.5 16.1,3 26.2,19.4 l 0.9,-10.3 10.6,16.9 7.9,-12.6 3.6,18.9 c 5.7,3 12.5,6.6 12.5,6.6 l 14.9,-43.7 c 0,0 0,0 0.1,-0.1 -2.7,-0.6 -5.6,-0.9 -8.8,-1 -9.8,-0.2 -20.6,2.1 -31.5,6.3 2.7,-1.9 5.3,-3.8 8,-5.5 -19.2,-1.1 -37.9,-21.1 -13.5,-49.5 0.2,-0.2 0.4,-0.5 0.6,-0.7 -2.8,4.3 -4.6,8.4 -5.5,12.2 7.1,3.6 15.8,3.5 23.3,-0.7 -0.9,0.9 -1.9,1.8 -3,2.6 -6.3,4.9 -14.1,6.4 -21.1,4.9 0,0.9 0.1,1.8 0.2,2.7 8.6,4.5 19.6,3.5 27.7,-2.7 -0.8,1 -1.6,2.1 -2.5,3 -6,6.2 -14.2,8.9 -22.1,8 0.8,1.2 1.7,2.4 2.7,3.4 10.1,3 21.6,0.2 29.4,-7.5 -0.7,1.2 -1.4,2.4 -2.3,3.6 -3.8,5.1 -9.1,8.6 -14.8,10.5 2.3,0.5 4.6,0.6 6.9,0.4 9.3,-0.8 16.6,-6.9 21.6,-16.4 l -11.6,-13.5 c 0.6,0.1 10.6,-7.3 10.6,-7.3 z M 162.2,129.7 c 2.8,-12.6 18.3,-19.4 34.8,-15.3 11.2,2.8 19.9,10 23.5,18.2 -4.5,-5.4 -11.3,-9.8 -19.5,-11.8 -16.4,-4.1 -32,2.7 -34.7,15.3 -0.9,4.1 -0.3,8.4 1.5,12.3 -4.8,-5.5 -7,-12.2 -5.6,-18.7 z M 128,97.6 c -0.4,-6.1 2.9,-13.3 8.7,-15.6 0,0 4,4 6.8,7.4 l 0.9,1.1 13.4,14.4 -17.7,-12.3 -0.5,-0.4 c -0.6,0.7 -1.1,1.4 -1.7,2.3 -2,3.1 -3.5,7 -4.3,11.2 -0.8,4.5 0.7,14.9 0.7,14.9 -0.4,-1.4 -2.2,-7 -2.6,-8.3 -0.5,-1.5 -1,-3.1 -1.4,-4.6 -1.1,-3.8 -2.1,-7.4 -2.3,-10.1 z m 10.9,108.9 c -15,-21.5 -14.7,-52.3 -0.5,-72.7 l 0.9,11.1 c 6.3,-12.7 11.6,-18.8 20.7,-27.6 0,0 -17.5,24 -19.8,52.5 -1,-5.2 -2.2,-9.3 -2.7,-12.1 -7.1,14.4 -5.1,35.7 4.3,52.6 -1.1,-1.3 -2,-2.6 -2.9,-3.8 z m 63.4,-3.8 c -0.1,-0.1 -0.1,-0.1 -0.2,-0.2 -4.6,-4.1 -7.5,-9.2 -8.8,-14.6 -23.2,5.8 -41,-2.8 -43.2,-23.5 -0.2,-1.8 -0.2,-3.7 -0.2,-5.6 5.1,19.5 26.7,25.4 52.6,14.9 -5.2,12.2 -4.4,22 -0.2,29 z m 2.9,13.4 c -8.1,-1.4 -15.4,-4.4 -21.3,-8.5 -21,2.7 -39,-7.4 -40.9,-24.3 -0.2,-1.5 -0.2,-3.1 -0.1,-4.7 3.8,13.3 19.8,21.8 37.8,20.1 1.7,-0.2 3.4,-0.4 5.1,-0.7 1,1.8 2.1,3.4 3.3,5 4.5,6 10.2,10.3 16.6,13.1 -0.2,0.1 -0.3,0.1 -0.5,0 z m 10.2,-64 c 0,0 0,0 0,0 -7,9.8 -17.9,16.6 -29.7,17.3 -14.4,0.9 -26.1,-7.5 -30.6,-20.1 6.8,8.9 18.7,14.3 32.6,13.4 0.8,0 1.6,-0.1 2.4,-0.2 -7.8,-3 -12.8,-12.1 -13.4,-23.4 2.8,9.6 9.6,16.7 18.7,18.3 6.8,1.2 13.7,-0.8 19.8,-5.2 0.1,0 0.2,-0.1 0.2,-0.1 0,0 0,0 0,0 0,0 0,0 0,0 z m 7.5,5.2 c -0.3,0.5 -0.6,0.9 -0.9,1.3 0.6,-3.7 -0.1,-7 -2.1,-9.5 -1.1,-1.4 -2.9,-2.5 -4.6,-2.9 -2.1,-0.4 -8.1,1.1 -12.6,-1.3 -3.6,-1.9 -6.4,-6 -7.8,-9.1 -1.4,0.4 -2.3,0.6 -2.3,0.6 0,0 2.8,6.7 7.8,10.5 -0.9,-0.1 -1.9,-0.3 -2.7,-0.5 -7.7,-2.2 -12.1,-12.7 -12.1,-12.7 0,0 8.1,-2 15.8,-2.5 -4,-0.9 -8,-1.3 -11.7,-1.3 5,-2 10.6,-2.4 16.3,-0.9 4.2,1.2 7.9,3.3 10.9,6.1 0.6,0.5 1.2,1 1.7,1.6 1.5,1.6 2.9,3.6 4,5.9 2.2,4.4 3.1,9.8 0.3,14.7 z"
         id="path6"
         inkscape:connector-curvature="0"
         style="fill:#ffffff" /><path
         d="m 217,135.1 c -3,-2.8 -6.7,-4.9 -10.9,-6.1 -5.6,-1.6 -11.3,-1.1 -16.3,0.9 3.8,0 7.7,0.5 11.7,1.3 -7.7,0.5 -15.8,2.5 -15.8,2.5 0,0 4.4,10.6 12.1,12.7 0.9,0.2 1.8,0.4 2.7,0.5 -5,-3.8 -7.8,-10.5 -7.8,-10.5 0,0 0.9,-0.3 2.3,-0.6 1.4,3.1 4.2,7.2 7.8,9.1 4.5,2.4 10.4,0.9 12.6,1.3 1.8,0.3 3.5,1.5 4.6,2.9 2,2.4 2.7,5.8 2.1,9.5 0.3,-0.4 0.6,-0.9 0.9,-1.3 2.8,-4.8 1.9,-10.2 -0.3,-14.7 -1.1,-2.3 -2.6,-4.3 -4,-5.9 -0.6,-0.6 -1.1,-1.1 -1.7,-1.6 z m -4.5,5.3 c -0.6,2 -3,3 -5.4,2.2 -2.4,-0.7 -3.9,-2.9 -3.3,-4.8 0.6,-2 3,-3 5.4,-2.2 2.4,0.6 3.9,2.8 3.3,4.8 z"
         id="path8"
         inkscape:connector-curvature="0" /><path
         d="m 274.5,190.6 c 1.2,1.6 2.5,2.8 3.9,3.5 0.2,-0.9 0.3,-1.7 0.4,-2.6 -1.9,-0.2 -3.8,-1.1 -5.6,-2.9 0.4,0.7 0.9,1.4 1.3,2 z"
         id="path10"
         inkscape:connector-curvature="0" /><path
         d="m 275.6,184.8 c 0.9,0.9 1.9,1.6 2.9,2.1 -0.2,-0.8 -0.4,-1.5 -0.6,-2.3 -1.2,-0.1 -2.5,-0.6 -3.8,-1.5 0.5,0.6 1,1.2 1.5,1.7 z"
         id="path12"
         inkscape:connector-curvature="0" /><path
         d="m 265,187.7 9,-11 4.4,-5.2 -3.7,-3.8 -6.2,4.3 -9.6,-5.5 -10.6,7.3 11.6,13.5 c -5,9.4 -12.2,15.6 -21.6,16.4 -2.3,0.2 -4.6,0 -6.9,-0.4 5.7,-1.8 11,-5.4 14.8,-10.5 0.9,-1.2 1.6,-2.4 2.3,-3.6 -7.8,7.7 -19.3,10.5 -29.4,7.5 -1,-1 -1.9,-2.2 -2.7,-3.4 7.8,0.9 16.1,-1.8 22.1,-8 0.9,-1 1.8,-2 2.5,-3 -8.1,6.2 -19.1,7.2 -27.7,2.7 -0.1,-0.9 -0.2,-1.7 -0.2,-2.7 7,1.6 14.7,0 21.1,-4.9 1.1,-0.8 2,-1.7 3,-2.6 -7.5,4.2 -16.2,4.3 -23.3,0.7 0.9,-3.8 2.7,-7.9 5.5,-12.2 -0.2,0.2 -0.4,0.5 -0.6,0.7 -24.4,28.4 -5.7,48.5 13.5,49.5 -2.6,1.7 -5.3,3.5 -8,5.5 10.9,-4.2 21.7,-6.5 31.5,-6.3 3.1,0.1 6.1,0.4 8.8,1 0.6,-0.6 5.7,-5.2 9.6,-10.9 -3.7,-1.8 -6.6,-8 -9.2,-15.1 z"
         id="path14"
         inkscape:connector-curvature="0" /><path
         d="m 270.7,193.9 c 0.4,0.8 0.8,1.6 1.3,2.4 1.1,1.7 2.3,3.1 3.5,4.2 0.4,-0.7 0.8,-1.4 1.2,-2.2 -2,-0.6 -4.1,-2.1 -6,-4.4 z"
         id="path16"
         inkscape:connector-curvature="0" /><path
         d="m 215.4,152.1 c 0,0 0,0 0,0 0,0 0,0 0,0 0,0 0,0 0,0 0,0 -0.1,0 -0.1,0.1 -6,4.3 -13,6.3 -19.8,5.2 -9.2,-1.6 -15.9,-8.7 -18.7,-18.3 0.6,11.4 5.5,20.5 13.4,23.4 -0.8,0.1 -1.6,0.2 -2.4,0.2 -13.9,0.8 -25.8,-4.5 -32.6,-13.4 4.5,12.7 16.2,21 30.6,20.1 11.7,-0.7 22.6,-7.5 29.6,-17.3 z"
         id="path18"
         inkscape:connector-curvature="0" /><path
         d="m 149.9,158.8 c -0.1,1.9 0,3.8 0.2,5.6 2.2,20.7 20,29.3 43.2,23.5 1.3,5.5 4.2,10.6 8.8,14.6 0.1,0.1 0.1,0.1 0.2,0.2 -4.2,-7 -5,-16.8 0.2,-29 -25.8,10.5 -47.4,4.6 -52.6,-14.9 z"
         id="path20"
         inkscape:connector-curvature="0" /><path
         class="st1"
         d="m 209.2,135.5 c -2.4,-0.7 -4.8,0.3 -5.4,2.2 -0.6,2 0.9,4.1 3.3,4.8 2.4,0.7 4.8,-0.3 5.4,-2.2 0.6,-1.9 -0.9,-4.1 -3.3,-4.8 z"
         id="path22"
         inkscape:connector-curvature="0"
         style="fill:#00aeef" /><path
         d="m 225.6,244.9 -0.1,-0.2 -0.1,0.1 c 0.1,0 0.1,0 0.2,0.1 z"
         id="path24"
         inkscape:connector-curvature="0" /><path
         d="m 257.4,134 c -0.7,0.8 -1.4,1.6 -1.9,2.6 -2.1,3.4 -3.3,7.7 -1.5,11.8 0.2,0.4 0.4,0.8 0.6,1.1 -0.1,-1.7 0.2,-3.3 0.7,-4.7 0.4,-1.1 1,-2 1.8,-2.8 0.9,-0.9 3.4,-1.8 3.4,-1.8 z"
         id="path26"
         inkscape:connector-curvature="0" /><path
         d="m 254,127.2 -1,-1.9 -1.7,-1 c -1.9,2.6 -3.4,5.8 -4.1,9.3 1.8,-2.4 4.1,-4.6 6.8,-6.4 z"
         id="path28"
         inkscape:connector-curvature="0" /><path
         d="m 131.8,112.2 c 0.4,1.4 2.1,6.9 2.6,8.3 0,0 -1.5,-10.4 -0.7,-14.9 0.8,-4.2 2.3,-8.1 4.3,-11.2 0.5,-0.8 1.1,-1.6 1.7,-2.3 l 0.5,0.4 17.7,12.3 -13.4,-14.4 -0.9,-1.1 c -2.8,-3.4 -6.8,-7.4 -6.8,-7.4 -5.8,2.3 -9.1,9.6 -8.7,15.6 0.2,2.7 1.1,6.3 2.3,10 0.4,1.6 0.9,3.1 1.4,4.7 z"
         id="path30"
         inkscape:connector-curvature="0" /><path
         d="m 189.1,203.1 c -1.2,-1.5 -2.3,-3.2 -3.3,-5 -1.7,0.3 -3.4,0.5 -5.1,0.7 -18.1,1.7 -34.1,-6.8 -37.8,-20.1 -0.1,1.6 0,3.2 0.1,4.7 1.8,16.8 19.8,26.9 40.9,24.3 6,4.1 13.2,7.1 21.3,8.5 0.1,0 0.3,0 0.4,0.1 -6.3,-2.9 -12,-7.2 -16.5,-13.2 z"
         id="path32"
         inkscape:connector-curvature="0" /><path
         d="m 137.5,157.6 c 0.5,2.8 1.7,6.9 2.7,12.1 2.4,-28.5 19.8,-52.5 19.8,-52.5 -9.1,8.8 -14.4,14.9 -20.7,27.6 l -0.9,-11.1 c -14.2,20.4 -14.5,51.2 0.5,72.7 0.8,1.2 1.8,2.4 2.8,3.7 -9.3,-16.7 -11.3,-38.1 -4.2,-52.5 z"
         id="path34"
         inkscape:connector-curvature="0" /><path
         d="m 166.2,136.1 c 2.8,-12.6 18.3,-19.4 34.7,-15.3 8.2,2.1 15,6.4 19.5,11.8 -3.6,-8.2 -12.3,-15.4 -23.5,-18.2 -16.5,-4.1 -32.1,2.7 -34.8,15.3 -1.4,6.4 0.8,13.1 5.5,18.7 -1.7,-4 -2.3,-8.2 -1.4,-12.3 z"
         id="path36"
         inkscape:connector-curvature="0" /></g><g
       id="g52"><path
         class="st0"
         d="m 242.2,97.5 -1,-0.2 1,-18.7 c 0.7,-12.8 -11.9,-23.1 -31.5,-26 -0.2,-2.4 -2.8,-3.8 -7.3,-4.1 -0.3,0 -0.7,0 -1,0 -5.3,0 -6.5,2.1 -6.7,3.5 -2.4,0.1 -4.8,0.5 -4.8,0.5 -18.5,2.7 -30.9,12.7 -31.6,25.5 0,0.1 -1.3,23.9 -1.3,23.9 l 1.4,0.9 c 3.9,2.4 8.8,4.4 14.8,5.8 -0.1,0.4 -0.1,0.8 -0.2,1.2 -0.1,4.7 4.7,8.7 14.3,11.7 8.3,2.6 19.4,4.3 31.2,4.6 1.3,0 2.5,0.1 3.8,0.1 26.8,0 41.5,-7.9 41.7,-15.3 0.4,-6.8 -14.2,-11.3 -22.8,-13.4 z"
         id="path40"
         inkscape:connector-curvature="0"
         style="fill:#ffffff" /><path
         d="m 262.4,110.8 c -0.2,6.7 -18.8,13.3 -42.6,12.5 -23.8,-0.8 -43,-6.8 -42.8,-13.4 0,-0.4 0.1,-0.7 0.2,-1.1 6,1.4 13.5,2.1 22.7,2.6 24.9,1.4 41.5,-5.6 41.5,-5.6 l 0.2,-5.6 c -0.1,0 20.9,5.1 20.8,10.6 z M 180,94.6 c 0.5,-8.4 1,-16.7 1,-16.7 0,-0.4 0.1,-12.4 7.4,-20.1 0.9,-1 2,-1.9 3.1,-2.6 -15.9,2.3 -28.5,10.9 -29.2,22.9 0,0 -0.6,11.3 -1.2,22.3 4.3,2.7 10.2,4.9 18.3,6.4 0,-2.6 0.3,-6.4 0.6,-12.2 z m 59.4,-16.2 c 0,0 -0.7,13.5 -1.4,25.9 -11.2,3.6 -25.5,5.3 -41,4.5 -5.7,-0.3 -10.7,-0.8 -15.1,-1.5 0.4,-6.6 1.1,-19.7 1.7,-29.2 0,-0.1 0.1,-11.2 6.5,-18.1 2.3,-2.4 5.1,-4 8.4,-4.8 0.9,0.6 2.3,1 4.4,1.1 2.9,0.2 4.5,-0.4 5.3,-1.2 18.9,2.2 31.8,11.4 31.2,23.3 z"
         id="path42"
         inkscape:connector-curvature="0" /><ellipse
         transform="matrix(0.05365777,-0.9986,0.9986,0.05365777,140.1877,252.3972)"
         cx="203.3"
         cy="52.200001"
         rx="1.8"
         ry="4.6999998"
         id="ellipse44" /><g
         id="g50"><path
           class="st0"
           d="m 209.1,96 -2.9,0.2 1.2,-17 2.8,-0.2 5.6,10.4 0.7,-10.8 2.9,-0.2 -1.2,17 -2.8,0.2 -5.6,-10.7 z"
           id="path46"
           inkscape:connector-curvature="0"
           style="fill:#ffffff" /><path
           class="st0"
           d="m 228,88.7 -0.4,6.1 -3,0.2 0.4,-6.1 -3.6,-10.6 3.3,-0.2 2.1,7.1 3.1,-7.5 3.3,-0.2 z"
           id="path48"
           inkscape:connector-curvature="0"
           style="fill:#ffffff" /></g></g></g><g
     aria-label="Feliciano"
     transform="translate(-3582.3535,5840.7226)"
     style="font-style:normal;font-variant:normal;font-weight:bold;font-stretch:normal;font-size:666.66668701px;line-height:1.25;font-family:'Noto Sans';-inkscape-font-specification:'Noto Sans Bold';letter-spacing:0px;word-spacing:0px;fill:#ffffff;fill-opacity:1;stroke:none"
     id="flowRoot873"><path
       d="m 4538.0156,-4273.0768 h -99.2838 v -475.9115 h 272.7864 v 82.6823 h -173.5026 v 122.7214 h 161.4584 v 82.3567 h -161.4584 z"
       style=""
       id="path1066" /><path
       d="m 4947.5209,-4573.207 q -31.5756,0 -49.4792,20.1823 -17.9037,19.8567 -20.5078,56.6406 h 139.3229 q -0.651,-36.7839 -19.2057,-56.6406 -18.5547,-20.1823 -50.1302,-20.1823 z m 13.9974,306.6406 q -87.8907,0 -137.3698,-48.5026 -49.4792,-48.5026 -49.4792,-137.3698 0,-91.4714 45.5729,-141.276 45.8984,-50.1303 126.6276,-50.1303 77.1485,0 120.1172,43.9454 42.9688,43.9453 42.9688,121.4192 v 48.1771 h -234.7006 q 1.6276,42.3177 25.0651,66.0808 23.4375,23.763 65.7552,23.763 32.8777,0 62.1745,-6.836 29.2969,-6.8359 61.1979,-21.8099 v 76.823 q -26.0416,13.0208 -55.664,19.2057 -29.6224,6.5104 -72.2656,6.5104 z"
       style=""
       id="path1068" /><path
       d="m 5290.6198,-4273.0768 h -99.2838 v -506.5104 h 99.2838 z"
       style=""
       id="path1070" /><path
       d="m 5390.2292,-4731.0846 q 0,-48.5026 54.0364,-48.5026 54.0365,0 54.0365,48.5026 0,23.1119 -13.6719,36.1328 -13.3463,12.6953 -40.3646,12.6953 -54.0364,0 -54.0364,-48.8281 z m 103.5156,458.0078 h -99.2838 v -363.9323 h 99.2838 z"
       style=""
       id="path1072" /><path
       d="m 5745.3725,-4266.5664 q -169.9219,0 -169.9219,-186.5234 0,-92.7735 46.224,-141.6016 46.2239,-49.1537 132.4869,-49.1537 63.1511,0 113.2813,24.7396 l -29.2969,76.823 q -23.4375,-9.4402 -43.6198,-15.2995 -20.1823,-6.1849 -40.3646,-6.1849 -77.4739,0 -77.4739,110.026 0,106.7709 77.4739,106.7709 28.6459,0 53.0599,-7.487 24.4141,-7.8125 48.8282,-24.0886 v 84.961 q -24.0886,15.2995 -48.8282,21.1588 -24.414,5.8594 -61.8489,5.8594 z"
       style=""
       id="path1074" /><path
       d="m 5935.8021,-4731.0846 q 0,-48.5026 54.0365,-48.5026 54.0364,0 54.0364,48.5026 0,23.1119 -13.6718,36.1328 -13.3464,12.6953 -40.3646,12.6953 -54.0365,0 -54.0365,-48.8281 z m 103.5157,458.0078 h -99.2839 v -363.9323 h 99.2839 z"
       style=""
       id="path1076" /><path
       d="m 6374.2787,-4273.0768 -19.2057,-49.4792 h -2.6042 q -25.0651,31.5755 -51.7578,43.9453 -26.3672,12.0443 -69.0104,12.0443 -52.4089,0 -82.6823,-29.9479 -29.9479,-29.9479 -29.9479,-85.2865 0,-57.9427 40.3645,-85.2864 40.6901,-27.6693 122.3959,-30.599 l 63.151,-1.9531 v -15.9505 q 0,-55.3386 -56.6406,-55.3386 -43.6198,0 -102.5391,26.3672 l -32.8776,-67.0573 q 62.8255,-32.8776 139.3229,-32.8776 73.2422,0 112.3047,31.901 39.0625,31.9011 39.0625,97.0053 v 242.513 z m -29.2969,-168.6198 -38.4114,1.3021 q -43.2943,1.3021 -64.4532,15.625 -21.1588,14.3229 -21.1588,43.6198 0,41.9922 48.1771,41.9922 34.5052,0 55.013,-19.8568 20.8333,-19.8568 20.8333,-52.7344 z"
       style=""
       id="path1078" /><path
       d="m 6881.4403,-4273.0768 h -99.2839 v -212.5651 q 0,-39.388 -13.9974,-58.9193 -13.9974,-19.8568 -44.5963,-19.8568 -41.6667,0 -60.2214,27.9948 -18.5547,27.6693 -18.5547,92.1224 v 171.224 h -99.2838 v -363.9323 h 75.8463 l 13.3464,46.5495 h 5.5338 q 16.6016,-26.3672 45.573,-39.7136 29.2968,-13.6719 66.4062,-13.6719 63.4766,0 96.3542,34.5053 32.8776,34.1796 32.8776,98.9583 z"
       style=""
       id="path1080" /><path
       d="m 7063.4063,-4455.694 q 0,54.0365 17.5782,81.7057 17.9036,27.6693 57.9427,27.6693 39.7135,0 56.9661,-27.3438 17.5781,-27.6692 17.5781,-82.0312 0,-54.0365 -17.5781,-81.0547 -17.5781,-27.0182 -57.6172,-27.0182 -39.7135,0 -57.2916,27.0182 -17.5782,26.6927 -17.5782,81.0547 z m 251.6276,0 q 0,88.8672 -46.875,138.9974 -46.875,50.1302 -130.5338,50.1302 -52.4089,0 -92.4479,-22.7865 -40.0391,-23.1119 -61.5235,-66.0807 -21.4843,-42.9687 -21.4843,-100.2604 0,-89.1927 46.5494,-138.6719 46.5495,-49.4792 130.8594,-49.4792 52.4089,0 92.4479,22.7865 40.0391,22.7865 61.5235,65.4297 21.4843,42.6432 21.4843,99.9349 z"
       style=""
       id="path1082" /></g><g
     aria-label="Tech"
     transform="translate(1935.6563,5853.8177)"
     style="font-style:normal;font-variant:normal;font-weight:bold;font-stretch:normal;font-size:666.66668701px;line-height:1.25;font-family:'Noto Sans';-inkscape-font-specification:'Noto Sans Bold';letter-spacing:0px;word-spacing:0px;fill:#ffffff;fill-opacity:1;stroke:none"
     id="flowRoot873-3"><path
       d="m 4622.3255,-4273.0768 h -100.9114 v -391.9271 h -129.2318 v -83.9844 h 359.375 v 83.9844 h -129.2318 z"
       style=""
       id="path1085" /><path
       d="m 4946.2188,-4573.207 q -31.5756,0 -49.4792,20.1823 -17.9036,19.8567 -20.5078,56.6406 h 139.3229 q -0.651,-36.7839 -19.2057,-56.6406 -18.5547,-20.1823 -50.1302,-20.1823 z m 13.9974,306.6406 q -87.8907,0 -137.3698,-48.5026 -49.4792,-48.5026 -49.4792,-137.3698 0,-91.4714 45.5729,-141.276 45.8985,-50.1303 126.6276,-50.1303 77.1485,0 120.1172,43.9454 42.9688,43.9453 42.9688,121.4192 v 48.1771 h -234.7006 q 1.6276,42.3177 25.0651,66.0808 23.4375,23.763 65.7553,23.763 32.8776,0 62.1744,-6.836 29.2969,-6.8359 61.198,-21.8099 v 76.823 q -26.0417,13.0208 -55.6641,19.2057 -29.6224,6.5104 -72.2656,6.5104 z"
       style=""
       id="path1087" /><path
       d="m 5337.8204,-4266.5664 q -169.9219,0 -169.9219,-186.5234 0,-92.7735 46.2239,-141.6016 46.224,-49.1537 132.487,-49.1537 63.1511,0 113.2813,24.7396 l -29.2969,76.823 q -23.4375,-9.4402 -43.6198,-15.2995 -20.1823,-6.1849 -40.3646,-6.1849 -77.4739,0 -77.4739,110.026 0,106.7709 77.4739,106.7709 28.6459,0 53.0599,-7.487 24.4141,-7.8125 48.8281,-24.0886 v 84.961 q -24.0885,15.2995 -48.8281,21.1588 -24.414,5.8594 -61.8489,5.8594 z"
       style=""
       id="path1089" /><path
       d="m 5868.4193,-4273.0768 h -99.2839 v -212.5651 q 0,-78.7761 -58.5937,-78.7761 -41.6667,0 -60.2214,28.3203 -18.5547,28.3204 -18.5547,91.7969 v 171.224 h -99.2838 v -506.5104 h 99.2838 v 103.1901 q 0,12.0442 -2.2786,56.6406 l -2.2787,29.2969 h 5.2084 q 33.2031,-53.3855 105.4687,-53.3855 64.1276,0 97.3308,34.5053 33.2031,34.5052 33.2031,98.9583 z"
       style=""
       id="path1091" /></g></svg>