<?xml version="1.0" encoding="UTF-8" standalone="no"?>
<!-- Generator: Adobe Illustrator 22.0.1, SVG Export Plug-In . SVG Version: 6.00 Build 0)  -->

<svg
   xmlns:dc="http://purl.org/dc/elements/1.1/"
   xmlns:cc="http://creativecommons.org/ns#"
   xmlns:rdf="http://www.w3.org/1999/02/22-rdf-syntax-ns#"
   xmlns:svg="http://www.w3.org/2000/svg"
   xmlns="http://www.w3.org/2000/svg"
   xmlns:sodipodi="http://sodipodi.sourceforge.net/DTD/sodipodi-0.dtd"
   xmlns:inkscape="http://www.inkscape.org/namespaces/inkscape"
   version="1.1"
   id="Layer_1"
   x="0px"
   y="0px"
   viewBox="0 0 1615.9487 2088.8772"
   xml:space="preserve"
   sodipodi:docname="logo-monochrome-white.svg"
   width="1615.9487"
   height="2088.8772"
   inkscape:version="0.92.3 (2405546, 2018-03-11)"><metadata
   id="metadata47"><rdf:RDF><cc:Work
       rdf:about=""><dc:format>image/svg+xml</dc:format><dc:type
         rdf:resource="http://purl.org/dc/dcmitype/StillImage" /><dc:title></dc:title></cc:Work></rdf:RDF></metadata><defs
   id="defs45" /><sodipodi:namedview
   pagecolor="#ffffff"
   bordercolor="#666666"
   borderopacity="1"
   objecttolerance="10"
   gridtolerance="10"
   guidetolerance="10"
   inkscape:pageopacity="0"
   inkscape:pageshadow="2"
   inkscape:window-width="3098"
   inkscape:window-height="1689"
   id="namedview43"
   showgrid="false"
   inkscape:zoom="0.54"
   inkscape:cx="152.7461"
   inkscape:cy="917.42654"
   inkscape:window-x="102"
   inkscape:window-y="55"
   inkscape:window-maximized="1"
   inkscape:current-layer="Layer_1"
   inkscape:pagecheckerboard="true"
   fit-margin-top="0"
   fit-margin-left="0"
   fit-margin-right="0"
   fit-margin-bottom="0" />
<style
   type="text/css"
   id="style2">
	.st0{fill:#FFFFFF;}
	.st1{fill:none;}
</style>
<g
   id="g40"
   transform="matrix(9.9850732,0,0,9.9850732,-1168.1494,-484.27605)">
	<g
   id="g8">
		<path
   class="st0"
   d="m 274,202.9 c 0.5,-0.8 1.1,-1.5 1.5,-2.3 -1.2,-1.1 -2.4,-2.5 -3.5,-4.2 -0.5,-0.8 -0.9,-1.6 -1.3,-2.4 1.8,2.3 3.9,3.8 6,4.4 0.7,-1.3 1.2,-2.6 1.6,-3.9 0,-0.1 0.1,-0.3 0.1,-0.4 -1.3,-0.8 -2.7,-1.9 -3.9,-3.5 -0.5,-0.6 -0.9,-1.3 -1.3,-2 1.8,1.8 3.8,2.7 5.6,2.9 0.1,-1.6 -0.1,-3.1 -0.4,-4.6 -1,-0.5 -1.9,-1.2 -2.9,-2.1 -0.5,-0.5 -1,-1.1 -1.5,-1.7 1.3,0.9 2.5,1.4 3.8,1.5 -1.1,-3.5 -2.9,-6.5 -4,-7.9 l -9,11 c 2.8,7.1 5.7,13.3 9.2,15.2 z"
   id="path4"
   inkscape:connector-curvature="0"
   style="fill:#ffffff" />
		<path
   d="m 225.6,244.9 -0.1,-0.2 -0.1,0.1 c 0.1,0 0.1,0 0.2,0.1 z"
   id="path6"
   inkscape:connector-curvature="0" />
	</g>
	<path
   class="st0"
   d="m 209.2,135.5 c -2.4,-0.7 -4.8,0.3 -5.4,2.2 -0.6,2 0.9,4.1 3.3,4.8 2.4,0.7 4.8,-0.3 5.4,-2.2 0.6,-1.9 -0.9,-4.1 -3.3,-4.8 z"
   id="path10"
   inkscape:connector-curvature="0"
   style="fill:#ffffff" />
	<g
   id="g38">
		<g
   id="g30">
			<path
   class="st1"
   d="m 131.8,112.2 c 0.4,1.4 2.1,6.9 2.6,8.3 0,0 -1.5,-10.4 -0.7,-14.9 0.8,-4.2 2.3,-8.1 4.3,-11.2 0.5,-0.8 1.1,-1.6 1.7,-2.3 l 0.5,0.4 17.7,12.3 -13.4,-14.4 -0.9,-1.1 c -2.8,-3.4 -6.8,-7.4 -6.8,-7.4 -5.8,2.3 -9.1,9.6 -8.7,15.6 0.2,2.7 1.1,6.3 2.3,10 0.4,1.6 0.9,3.1 1.4,4.7 z"
   id="path12"
   inkscape:connector-curvature="0"
   style="fill:none" />
			<path
   class="st1"
   d="m 149.9,158.8 c -0.1,1.9 0,3.8 0.2,5.6 2.2,20.7 20,29.3 43.2,23.5 1.3,5.5 4.2,10.6 8.8,14.6 0.1,0.1 0.1,0.1 0.2,0.2 -4.2,-7 -5,-16.8 0.2,-29 -25.8,10.5 -47.4,4.6 -52.6,-14.9 z"
   id="path14"
   inkscape:connector-curvature="0"
   style="fill:none" />
			<path
   class="st1"
   d="m 215.3,152.2 c -6,4.3 -13,6.3 -19.8,5.2 -9.2,-1.6 -15.9,-8.7 -18.7,-18.3 0.6,11.4 5.5,20.5 13.4,23.4 -0.8,0.1 -1.6,0.2 -2.4,0.2 -13.9,0.8 -25.8,-4.5 -32.6,-13.4 4.5,12.7 16.2,21 30.6,20.1 11.8,-0.7 22.7,-7.5 29.7,-17.3 0,0 0,0 0,0 0,0 0,0 0,0 0,0 0,0 0,0 -0.1,0 -0.2,0.1 -0.2,0.1 z"
   id="path16"
   inkscape:connector-curvature="0"
   style="fill:none" />
			<path
   class="st1"
   d="m 137.5,157.6 c 0.5,2.8 1.7,6.9 2.7,12.1 2.4,-28.5 19.8,-52.5 19.8,-52.5 -9.1,8.8 -14.4,14.9 -20.7,27.6 l -0.9,-11.1 c -14.2,20.4 -14.5,51.2 0.5,72.7 0.8,1.2 1.8,2.4 2.8,3.7 -9.3,-16.7 -11.3,-38.1 -4.2,-52.5 z"
   id="path18"
   inkscape:connector-curvature="0"
   style="fill:none" />
			<path
   class="st1"
   d="m 189.1,203.1 c -1.2,-1.5 -2.3,-3.2 -3.3,-5 -1.7,0.3 -3.4,0.5 -5.1,0.7 -18.1,1.7 -34.1,-6.8 -37.8,-20.1 -0.1,1.6 0,3.2 0.1,4.7 1.8,16.8 19.8,26.9 40.9,24.3 6,4.1 13.2,7.1 21.3,8.5 0.1,0 0.3,0 0.4,0.1 -6.3,-2.9 -12,-7.2 -16.5,-13.2 z"
   id="path20"
   inkscape:connector-curvature="0"
   style="fill:none" />
			<path
   class="st1"
   d="m 184.9,120.2 c -3.9,-1.5 -6.7,-3.2 -8.5,-5.1 -7.3,2.6 -12.7,7.8 -14.2,14.7 -1.4,6.4 0.8,13.1 5.5,18.7 -1.8,-4 -2.4,-8.2 -1.5,-12.3 1.9,-8.4 9.2,-14.2 18.7,-16 z"
   id="path22"
   inkscape:connector-curvature="0"
   style="fill:none" />
			<path
   class="st1"
   d="m 220.5,132.6 c -1,-2.4 -2.5,-4.6 -4.3,-6.7 -1.3,-0.1 -2.5,-0.1 -3.7,-0.2 3.1,2 5.8,4.3 8,6.9 z"
   id="path24"
   inkscape:connector-curvature="0"
   style="fill:none" />
			<path
   class="st1"
   d="m 218.7,136.7 c -0.5,-0.6 -1.1,-1.1 -1.7,-1.6 -3,-2.8 -6.7,-4.9 -10.9,-6.1 -5.6,-1.6 -11.3,-1.1 -16.3,0.9 3.8,0 7.7,0.5 11.7,1.3 -7.7,0.5 -15.8,2.5 -15.8,2.5 0,0 4.4,10.6 12.1,12.7 0.9,0.2 1.8,0.4 2.7,0.5 -5,-3.8 -7.8,-10.5 -7.8,-10.5 0,0 0.9,-0.3 2.3,-0.6 1.4,3.1 4.2,7.2 7.8,9.1 4.5,2.4 10.4,0.9 12.6,1.3 1.8,0.3 3.5,1.5 4.6,2.9 2,2.4 2.7,5.8 2.1,9.5 0.3,-0.4 0.6,-0.9 0.9,-1.3 2.8,-4.8 1.9,-10.2 -0.3,-14.7 -1.1,-2.3 -2.6,-4.3 -4,-5.9 z"
   id="path26"
   inkscape:connector-curvature="0"
   style="fill:none" />
			<path
   class="st0"
   d="m 268.4,171.9 6.2,-4.3 -14.2,-14.5 -5.1,-8.4 c -0.5,1.4 -0.8,3 -0.7,4.7 -0.2,-0.4 -0.4,-0.8 -0.6,-1.1 -1.8,-4.1 -0.6,-8.4 1.5,-11.8 0.6,-0.9 1.3,-1.8 1.9,-2.6 l -3.4,-6.7 c -2.7,1.7 -5,3.9 -6.8,6.5 0.8,-3.6 2.2,-6.7 4.1,-9.3 l -2.3,-1.3 c 10.4,-3 15.9,-7.7 16.1,-12.2 0.2,-6.7 -14.3,-11.3 -23,-13.4 l -1,-0.2 1,-18.7 c 0.7,-12.8 -11.9,-23.1 -31.5,-26 -0.2,-2.4 -2.8,-3.8 -7.3,-4.1 -0.3,0 -0.7,0 -1,0 -5.3,0 -6.5,2.1 -6.7,3.5 -2.4,0.1 -4.8,0.5 -4.8,0.5 -18.5,2.7 -30.9,12.7 -31.6,25.5 0,0.1 -0.6,11.3 -1,18.4 -6,-7.6 -17,-21.4 -19.4,-22.4 -2,-0.8 -4.2,-0.8 -6.2,-0.4 -9.2,1.9 -14.6,12.7 -13.9,21.6 0.8,10.9 10.7,33.3 10.7,33.3 -18.2,24.4 -15.4,56.9 2,80.9 6.2,8.5 16.8,16.8 25.5,22.8 -2.9,-4.4 -4.8,-9.4 -5.4,-15 4.4,6.8 11.2,12.3 20.4,15.7 1.5,-7.1 6.3,-13.2 15.7,-14.1 5.8,-0.5 16.1,3 26.2,19.4 l 0.9,-10.3 10.6,16.9 7.9,-12.6 3.6,18.9 c 5.7,3 12.5,6.6 12.5,6.6 L 264.2,214 c 0,0 0,0 0.1,-0.1 -2.7,-0.6 -5.6,-0.9 -8.8,-1 -9.8,-0.2 -20.6,2.1 -31.5,6.3 2.7,-1.9 5.3,-3.8 8,-5.5 -19.2,-1.1 -37.9,-21.1 -13.5,-49.5 0.2,-0.2 0.4,-0.5 0.6,-0.7 -2.8,4.3 -4.6,8.4 -5.5,12.2 7.1,3.6 15.8,3.5 23.3,-0.7 -0.9,0.9 -1.9,1.8 -3,2.6 -6.3,4.9 -14.1,6.4 -21.1,4.9 0,0.9 0.1,1.8 0.2,2.7 8.6,4.5 19.6,3.5 27.7,-2.7 -0.8,1 -1.6,2.1 -2.5,3 -6,6.2 -14.2,8.9 -22.1,8 0.8,1.2 1.7,2.4 2.7,3.4 10.1,3 21.6,0.2 29.4,-7.5 -0.7,1.2 -1.4,2.4 -2.3,3.6 -3.8,5.1 -9.1,8.6 -14.8,10.5 2.3,0.5 4.6,0.6 6.9,0.4 9.3,-0.8 16.6,-6.9 21.6,-16.4 L 248,174 l 10.6,-7.3 z m -65,-121.4 c 2.6,0.1 4.6,1 4.6,2 -0.1,1 -2.2,1.7 -4.8,1.5 -2.6,-0.2 -4.6,-1 -4.6,-2 0,-1 2.2,-1.7 4.8,-1.5 z m -4.9,4.6 c 0.9,0.6 2.3,1 4.4,1.1 2.9,0.2 4.5,-0.4 5.3,-1.2 18.8,2.2 31.7,11.4 31.1,23.3 0,0 -0.7,13.5 -1.4,25.9 -11.2,3.6 -25.5,5.3 -41,4.5 -5.7,-0.3 -10.7,-0.8 -15.1,-1.5 0.4,-6.6 1.1,-19.7 1.7,-29.2 0,-0.1 0.1,-11.2 6.5,-18.1 2.4,-2.4 5.2,-4 8.5,-4.8 z m -36.3,23 c 0.6,-12 13.2,-20.6 29.2,-22.9 -1.1,0.8 -2.1,1.6 -3.1,2.6 -7.3,7.7 -7.4,19.7 -7.4,20.1 0,0 -0.5,8.3 -1,16.7 -0.3,5.7 -0.6,9.6 -0.7,12.1 -8,-1.5 -14,-3.7 -18.3,-6.4 0.7,-10.9 1.3,-22.2 1.3,-22.2 z m 5.5,70.3 c -4.7,-5.6 -6.9,-12.2 -5.5,-18.7 1.5,-6.9 6.9,-12.1 14.2,-14.7 1.8,1.9 4.6,3.6 8.5,5.1 -9.5,1.8 -16.9,7.6 -18.7,15.9 -0.9,4.2 -0.3,8.4 1.5,12.4 z M 128,97.6 c -0.4,-6.1 2.9,-13.3 8.7,-15.6 0,0 4,4 6.8,7.4 l 0.9,1.1 13.4,14.4 -17.7,-12.3 -0.5,-0.4 c -0.6,0.7 -1.1,1.4 -1.7,2.3 -2,3.1 -3.5,7 -4.3,11.2 -0.8,4.5 0.7,14.9 0.7,14.9 -0.4,-1.4 -2.2,-7 -2.6,-8.3 -0.5,-1.5 -1,-3.1 -1.4,-4.6 -1.1,-3.8 -2.1,-7.4 -2.3,-10.1 z m 10.9,108.9 c -15,-21.5 -14.7,-52.3 -0.5,-72.7 l 0.9,11.1 c 6.3,-12.7 11.6,-18.8 20.7,-27.6 0,0 -17.5,24 -19.8,52.5 -1,-5.2 -2.2,-9.3 -2.7,-12.1 -7.1,14.4 -5,35.7 4.3,52.6 -1.1,-1.3 -2,-2.6 -2.9,-3.8 z m 63.4,-3.8 c -0.1,-0.1 -0.1,-0.1 -0.2,-0.2 -4.6,-4.1 -7.5,-9.2 -8.8,-14.6 -23.2,5.8 -41,-2.8 -43.2,-23.5 -0.2,-1.8 -0.2,-3.7 -0.2,-5.6 5.1,19.5 26.7,25.4 52.6,14.9 -5.2,12.2 -4.4,22 -0.2,29 z m 2.9,13.4 c -8.1,-1.4 -15.4,-4.4 -21.3,-8.5 -21,2.7 -39,-7.4 -40.9,-24.3 -0.2,-1.5 -0.2,-3.1 -0.1,-4.7 3.8,13.3 19.8,21.8 37.8,20.1 1.7,-0.2 3.4,-0.4 5.1,-0.7 1,1.8 2.1,3.4 3.3,5 4.5,6 10.2,10.3 16.6,13.1 -0.2,0.1 -0.3,0.1 -0.5,0 z m 10.2,-64 c 0,0 0,0 0,0 -7,9.8 -17.9,16.6 -29.7,17.3 -14.4,0.9 -26.1,-7.5 -30.6,-20.1 6.8,8.9 18.7,14.3 32.6,13.4 0.8,0 1.6,-0.1 2.4,-0.2 -7.8,-3 -12.8,-12.1 -13.4,-23.4 2.8,9.6 9.6,16.7 18.7,18.3 6.8,1.2 13.7,-0.8 19.8,-5.2 0.1,0 0.2,-0.1 0.2,-0.1 0,0 0,0 0,0 0,0 0,0 0,0 z m 7.5,5.2 c -0.3,0.5 -0.6,0.9 -0.9,1.3 0.6,-3.7 -0.1,-7 -2.1,-9.5 -1.1,-1.4 -2.9,-2.5 -4.6,-2.9 -2.1,-0.4 -8.1,1.1 -12.6,-1.3 -3.6,-1.9 -6.4,-6 -7.8,-9.1 -1.4,0.4 -2.3,0.6 -2.3,0.6 0,0 2.8,6.7 7.8,10.5 -0.9,-0.1 -1.9,-0.3 -2.7,-0.5 -7.7,-2.2 -12.1,-12.7 -12.1,-12.7 0,0 8.1,-2 15.8,-2.5 -4,-0.9 -8,-1.3 -11.7,-1.3 5,-2 10.6,-2.4 16.3,-0.9 4.2,1.2 7.9,3.3 10.9,6.1 0.6,0.5 1.2,1 1.7,1.6 1.5,1.6 2.9,3.6 4,5.9 2.2,4.4 3.1,9.8 0.3,14.7 z m -10.5,-31.6 c 1.2,0.1 2.5,0.2 3.7,0.2 1.8,2.1 3.3,4.4 4.3,6.7 -2.1,-2.6 -4.8,-4.9 -8,-6.9 z m 7.3,-2.4 c -23.8,-0.8 -43,-6.8 -42.8,-13.4 0,-0.4 0.1,-0.7 0.2,-1.1 6,1.4 13.5,2.1 22.7,2.6 24.9,1.4 41.5,-5.6 41.5,-5.6 l 0.2,-5.6 c 0,0 21,5.1 20.9,10.6 -0.2,6.6 -18.8,13.2 -42.7,12.5 z"
   id="path28"
   inkscape:connector-curvature="0"
   style="fill:#ffffff" />
		</g>
		<g
   id="g36">
			<path
   class="st0"
   d="m 209.1,96 -2.9,0.2 1.2,-17 2.8,-0.2 5.6,10.4 0.7,-10.8 2.9,-0.2 -1.2,17 -2.8,0.2 -5.6,-10.7 z"
   id="path32"
   inkscape:connector-curvature="0"
   style="fill:#ffffff" />
			<path
   class="st0"
   d="m 228,88.7 -0.4,6.1 -3,0.2 0.4,-6.1 -3.6,-10.6 3.3,-0.2 2.1,7.1 3.1,-7.5 3.3,-0.2 z"
   id="path34"
   inkscape:connector-curvature="0"
   style="fill:#ffffff" />
		</g>
	</g>
</g>
</svg>